<svg width="258" height="32" viewBox="0 0 258 32" fill="none" xmlns="http://www.w3.org/2000/svg">
<path d="M26.7417 9.4182L14.7332 2.48486L8.6665 12.8849L26.7417 9.4182Z" fill="#35BDF6"/>
<path d="M14.7332 2.48486L2.72461 9.4182L8.66645 12.8849L14.7332 2.48486Z" fill="#00EDED"/>
<path d="M2.72461 9.41797V23.2846L8.66646 12.8846L2.72461 9.41797Z" fill="#00D3D3"/>
<path d="M26.7418 23.2846L14.7333 30.218L12.3066 23.2846L26.7418 9.41797V23.2846Z" fill="#3196E0"/>
<path d="M8.66652 12.8848L2.72119 23.2848L14.7297 30.2181L8.66652 12.8848Z" fill="#5548FF"/>
<path fill-rule="evenodd" clip-rule="evenodd" d="M36.0669 24.9456V7.4668H40.6604C42.9931 7.4668 45.2424 8.01059 46.9221 9.47875C48.6357 10.9766 49.5335 13.2391 49.5335 16.1928C49.5335 19.1418 48.6473 21.4101 46.9396 22.9162C45.2636 24.3943 43.012 24.9456 40.6604 24.9456H36.0669ZM38.8344 10.2343V22.1781H40.6604C42.6267 22.1781 44.1198 21.713 45.1091 20.8406C46.0665 19.9962 46.766 18.58 46.766 16.1928C46.766 13.8103 46.0609 12.4017 45.1008 11.5625C44.1066 10.6935 42.6112 10.2343 40.6604 10.2343H38.8344ZM78.3073 24.9456V7.48134H84.2815C86.1903 7.48134 87.7335 8.07001 88.7933 9.18132C89.8387 10.2776 90.2557 11.7173 90.2557 13.1246C90.2557 14.5319 89.8387 15.9715 88.7933 17.0679C87.7335 18.1792 86.1903 18.7678 84.2815 18.7678H81.0748V24.9456H78.3073ZM81.0748 10.2488V16.0004H84.2815C85.613 16.0004 86.3651 15.604 86.7905 15.1579C87.2302 14.6969 87.4883 14.0067 87.4883 13.1246C87.4883 12.2424 87.2302 11.5523 86.7905 11.0912C86.3651 10.6452 85.613 10.2488 84.2815 10.2488H81.0748ZM52.0891 7.48134H62.5939V10.2488H54.8566V14.837H62.1526V17.6045H54.8566V22.1927H62.5939V24.9601H52.0891V7.48134ZM65.1982 24.9601V7.48134H75.703V10.2488H67.9657V14.837H75.2617V17.6045H67.9657V22.1927H75.703V24.9601H65.1982ZM137.735 7.46684V24.9456H140.502V7.4668L137.735 7.46684ZM129.871 7.46684L136.122 24.9456H133.183L131.705 20.8126H126.14L124.662 24.9456H121.723L127.974 7.46684H129.871ZM130.715 18.0451L128.923 13.0325L127.13 18.0451H130.715ZM144.581 24.9456V7.46684H147.819L155.942 20.4747V7.4668H158.709V24.9456H155.471L147.348 11.9376V24.9456H144.581ZM120.752 24.9456L116.88 18.1692C117.482 17.9318 118.023 17.6036 118.49 17.1752C119.632 16.1253 120.118 14.6621 120.118 13.0702C120.118 11.4783 119.632 10.0151 118.49 8.96518C117.365 7.9315 115.801 7.48141 114.011 7.48141H108.167V24.9417H110.934V18.659H113.972L117.565 24.9456H120.752ZM110.934 15.8915V10.2489H114.011C115.369 10.2489 116.167 10.5898 116.617 11.0029C117.049 11.3997 117.35 12.0391 117.35 13.0702C117.35 14.1013 117.049 14.7406 116.617 15.1375C116.167 15.5506 115.369 15.8915 114.011 15.8915H110.934ZM103.268 15.9113C104.051 14.9787 104.414 13.7762 104.414 12.5211C104.414 11.1869 104.004 9.912 103.115 8.95763C102.214 7.98973 100.94 7.48141 99.4781 7.48141L92.8726 7.48141V24.8728H99.3082C100.838 24.8728 102.3 24.5078 103.412 23.6483C104.568 22.7542 105.212 21.4254 105.212 19.8331C105.212 18.2408 104.568 16.912 103.412 16.0179C103.365 15.9815 103.317 15.946 103.268 15.9113ZM95.6401 17.5608V22.1053H99.3082C100.437 22.1053 101.236 21.8322 101.719 21.4586C102.158 21.1197 102.445 20.6205 102.445 19.8331C102.445 19.0457 102.158 18.5465 101.719 18.2075C101.236 17.834 100.437 17.5608 99.3082 17.5608H95.6401ZM95.6401 14.7934V10.2489H99.4781C100.279 10.2489 100.781 10.5121 101.09 10.8439C101.412 11.1893 101.647 11.7424 101.647 12.5211C101.647 13.2998 101.412 13.8529 101.09 14.1983C100.781 14.5302 100.279 14.7934 99.4781 14.7934H95.6401Z" fill="#12102D"/>
<path d="M168.262 25H166.398L170.585 13.3637H172.614L176.801 25H174.938L171.648 15.4773H171.557L168.262 25ZM168.574 20.4432H174.62V21.9205H168.574V20.4432Z" fill="black"/>
<path d="M180.237 13.3637V25H178.482V13.3637H180.237Z" fill="black"/>
<path d="M193.375 16.4205C193.315 15.8826 193.065 15.466 192.625 15.1705C192.186 14.8713 191.633 14.7216 190.966 14.7216C190.489 14.7216 190.076 14.7974 189.727 14.9489C189.379 15.0966 189.108 15.3012 188.915 15.5625C188.726 15.8201 188.631 16.1137 188.631 16.4432C188.631 16.7197 188.695 16.9584 188.824 17.1591C188.957 17.3599 189.129 17.5285 189.341 17.6648C189.557 17.7974 189.788 17.9091 190.034 18C190.281 18.0872 190.517 18.1591 190.745 18.216L191.881 18.5114C192.252 18.6023 192.633 18.7254 193.023 18.8807C193.413 19.036 193.775 19.2406 194.108 19.4944C194.442 19.7482 194.71 20.0625 194.915 20.4375C195.123 20.8125 195.227 21.2614 195.227 21.7841C195.227 22.4432 195.057 23.0285 194.716 23.5398C194.379 24.0512 193.888 24.4546 193.245 24.75C192.604 25.0455 191.83 25.1932 190.921 25.1932C190.049 25.1932 189.296 25.055 188.659 24.7785C188.023 24.5019 187.525 24.1099 187.165 23.6023C186.805 23.091 186.606 22.4849 186.568 21.7841H188.33C188.364 22.2046 188.5 22.555 188.739 22.8353C188.981 23.1118 189.29 23.3182 189.665 23.4546C190.044 23.5872 190.459 23.6535 190.909 23.6535C191.406 23.6535 191.847 23.5758 192.233 23.4205C192.623 23.2614 192.93 23.0417 193.154 22.7614C193.377 22.4773 193.489 22.1459 193.489 21.7671C193.489 21.4224 193.39 21.1402 193.193 20.9205C193 20.7008 192.737 20.519 192.404 20.375C192.074 20.2311 191.701 20.1042 191.284 19.9944L189.909 19.6194C188.977 19.3656 188.239 18.9925 187.693 18.5C187.152 18.0076 186.881 17.3561 186.881 16.5455C186.881 15.875 187.063 15.2898 187.426 14.7898C187.79 14.2898 188.282 13.9016 188.904 13.625C189.525 13.3447 190.226 13.2046 191.006 13.2046C191.794 13.2046 192.489 13.3428 193.091 13.6194C193.697 13.8959 194.174 14.2766 194.523 14.7614C194.871 15.2425 195.053 15.7955 195.068 16.4205H193.375Z" fill="black"/>
<path d="M196.752 14.875V13.3637H205.757V14.875H202.127V25H200.377V14.875H196.752Z" fill="black"/>
<path d="M215.23 13.3637H216.992V21.0171C216.992 21.8315 216.8 22.5531 216.418 23.1819C216.035 23.8069 215.497 24.2993 214.804 24.6591C214.111 25.0152 213.299 25.1932 212.367 25.1932C211.439 25.1932 210.628 25.0152 209.935 24.6591C209.242 24.2993 208.704 23.8069 208.321 23.1819C207.939 22.5531 207.747 21.8315 207.747 21.0171V13.3637H209.503V20.875C209.503 21.4016 209.619 21.8694 209.85 22.2785C210.085 22.6875 210.416 23.0095 210.844 23.2444C211.272 23.4754 211.78 23.591 212.367 23.591C212.958 23.591 213.467 23.4754 213.895 23.2444C214.327 23.0095 214.656 22.6875 214.884 22.2785C215.115 21.8694 215.23 21.4016 215.23 20.875V13.3637Z" fill="black"/>
<path d="M223.311 25H219.544V13.3637H223.431C224.571 13.3637 225.55 13.5966 226.368 14.0625C227.186 14.5247 227.813 15.1894 228.249 16.0569C228.688 16.9205 228.908 17.9565 228.908 19.1648C228.908 20.3769 228.686 21.4186 228.243 22.2898C227.804 23.161 227.167 23.8315 226.334 24.3012C225.501 24.7671 224.493 25 223.311 25ZM221.3 23.466H223.215C224.101 23.466 224.838 23.2993 225.425 22.966C226.012 22.6288 226.451 22.1421 226.743 21.5057C227.035 20.8656 227.181 20.0853 227.181 19.1648C227.181 18.2519 227.035 17.4773 226.743 16.841C226.455 16.2046 226.025 15.7216 225.453 15.3921C224.881 15.0625 224.171 14.8978 223.323 14.8978H221.3V23.466Z" fill="black"/>
<path d="M232.847 13.3637V25H231.091V13.3637H232.847Z" fill="black"/>
<path d="M245.512 19.1819C245.512 20.4243 245.284 21.4925 244.83 22.3864C244.375 23.2766 243.752 23.9622 242.96 24.4432C242.173 24.9205 241.277 25.1591 240.273 25.1591C239.265 25.1591 238.366 24.9205 237.574 24.4432C236.786 23.9622 236.165 23.2747 235.71 22.3807C235.256 21.4868 235.029 20.4205 235.029 19.1819C235.029 17.9394 235.256 16.8732 235.71 15.983C236.165 15.0891 236.786 14.4035 237.574 13.9262C238.366 13.4451 239.265 13.2046 240.273 13.2046C241.277 13.2046 242.173 13.4451 242.96 13.9262C243.752 14.4035 244.375 15.0891 244.83 15.983C245.284 16.8732 245.512 17.9394 245.512 19.1819ZM243.773 19.1819C243.773 18.2349 243.62 17.4375 243.313 16.7898C243.01 16.1383 242.593 15.6459 242.063 15.3125C241.536 14.9754 240.94 14.8069 240.273 14.8069C239.602 14.8069 239.004 14.9754 238.477 15.3125C237.951 15.6459 237.534 16.1383 237.227 16.7898C236.924 17.4375 236.773 18.2349 236.773 19.1819C236.773 20.1288 236.924 20.9281 237.227 21.5796C237.534 22.2273 237.951 22.7197 238.477 23.0569C239.004 23.3902 239.602 23.5569 240.273 23.5569C240.94 23.5569 241.536 23.3902 242.063 23.0569C242.593 22.7197 243.01 22.2273 243.313 21.5796C243.62 20.9281 243.773 20.1288 243.773 19.1819Z" fill="black"/>
<path d="M254.047 16.4205C253.986 15.8826 253.736 15.466 253.297 15.1705C252.858 14.8713 252.305 14.7216 251.638 14.7216C251.161 14.7216 250.748 14.7974 250.399 14.9489C250.051 15.0966 249.78 15.3012 249.587 15.5625C249.397 15.8201 249.303 16.1137 249.303 16.4432C249.303 16.7197 249.367 16.9584 249.496 17.1591C249.629 17.3599 249.801 17.5285 250.013 17.6648C250.229 17.7974 250.46 17.9091 250.706 18C250.952 18.0872 251.189 18.1591 251.416 18.216L252.553 18.5114C252.924 18.6023 253.305 18.7254 253.695 18.8807C254.085 19.036 254.447 19.2406 254.78 19.4944C255.113 19.7482 255.382 20.0625 255.587 20.4375C255.795 20.8125 255.899 21.2614 255.899 21.7841C255.899 22.4432 255.729 23.0285 255.388 23.5398C255.051 24.0512 254.56 24.4546 253.916 24.75C253.276 25.0455 252.502 25.1932 251.593 25.1932C250.721 25.1932 249.968 25.055 249.331 24.7785C248.695 24.5019 248.197 24.1099 247.837 23.6023C247.477 23.091 247.278 22.4849 247.24 21.7841H249.002C249.036 22.2046 249.172 22.555 249.411 22.8353C249.653 23.1118 249.962 23.3182 250.337 23.4546C250.716 23.5872 251.13 23.6535 251.581 23.6535C252.077 23.6535 252.519 23.5758 252.905 23.4205C253.295 23.2614 253.602 23.0417 253.826 22.7614C254.049 22.4773 254.161 22.1459 254.161 21.7671C254.161 21.4224 254.062 21.1402 253.865 20.9205C253.672 20.7008 253.409 20.519 253.076 20.375C252.746 20.2311 252.373 20.1042 251.956 19.9944L250.581 19.6194C249.649 19.3656 248.911 18.9925 248.365 18.5C247.824 18.0076 247.553 17.3561 247.553 16.5455C247.553 15.875 247.735 15.2898 248.098 14.7898C248.462 14.2898 248.954 13.9016 249.576 13.625C250.197 13.3447 250.897 13.2046 251.678 13.2046C252.466 13.2046 253.161 13.3428 253.763 13.6194C254.369 13.8959 254.846 14.2766 255.195 14.7614C255.543 15.2425 255.725 15.7955 255.74 16.4205H254.047Z" fill="black"/>
</svg>
